<?xml version="1.0" encoding="UTF-8"?><svg id="svg_canvas" data-noselect="" viewBox="0 0 800 600" width="800" height="600" preserveAspectRatio="none" version="1.1" xmlns="http://www.w3.org/2000/svg" xmlns:xlink="http://www.w3.org/1999/xlink"><defs></defs> <g id="background" data-noselect=""><rect fill="#ffffff" width="800" height="600" data-noselect=""></rect> <!----></g> <g id="shape_gYr3enQbzY" transform="translate(211.17207120095998,201.430071245385) rotate(0,103.12311397045,98.569928754613) scale(1,1)" filter="" style="cursor: move; opacity: 1;"><g><rect fill="rgba(0,0,0,0)" width="226.2462279409" height="217.13985750923" x="-10" y="-10"></rect><svg version="1.1" id="图层_1" xmlns="http://www.w3.org/2000/svg" xmlns:xlink="http://www.w3.org/1999/xlink" x="0px" y="0px" width="206.2462279409" height="197.13985750923" viewBox="0 0 50.290470123291016 48.06999969482422" style="enable-background:new 0 0 50.3 48.07;" xml:space="preserve" class="style-removed" preserveAspectRatio="none" data-parent="shape_gYr3enQbzY">

<g>
	<g>
		<path d="M3.56,48.07C1.79,48.07,0,46.73,0,44.18V18.53C0,8.4,9.07,2.14,17.46,2.14c6.38,0,10.76,3.18,12.27,4.45
			L31.78,0l3.29,7.09c2.82-0.97,6.12-0.26,7.13,0l5.5-6.36l-0.07,9.42c2.8,2.43,2.81,6.66,2.56,8.99l-0.01,0.11
			c-0.08,1.05-0.94,1.84-2,1.84l-14.49-0.03c-0.25,0-0.54,0-0.63,0.04c0,0.01,0,0.04,0,0.09c0,0.07,0,0.1,0.01,0.12l0.01,0.14
			c-0.06,1.37-1.27,1.99-2.36,1.99c0,0,0,0,0,0c-1.3,0-2.24-0.78-2.29-1.89l0-0.1c0-0.02,0-0.02-0.01-0.29l-0.01-0.1
			c-0.04-0.01-0.31-0.01-0.49-0.01h-0.12l-14.07-0.07c-0.71,0-1.29,0.58-1.29,1.3v8.07c0,1.06-0.36,1.93-1.07,2.58
			c-1.27,1.17-3.32,1.32-4.28,1.32c0,0-0.01,0-0.01,0V44C7.07,46.79,5.25,48.07,3.56,48.07z M17.46,3.08
			c-7.95,0-16.52,5.91-16.52,15.45v25.65c0,3.84,5.18,4.18,5.18-0.18V33.25l0.51,0.04c0.03,0,2.73,0.2,4.08-1.06
			c0.52-0.48,0.77-1.1,0.77-1.89v-8.07c0-1.23,1-2.24,2.24-2.24l14.19,0.07c0.5,0.01,1.43,0,1.45,1.02l0.01,0.39
			c0.03,0.78,0.86,0.99,1.35,0.99c0,0,0,0,0,0c0.51,0,1.38-0.23,1.42-1.08c-0.01-0.02-0.02-0.08-0.02-0.22
			c0-0.32,0.09-0.57,0.28-0.76c0.32-0.32,0.78-0.32,1.25-0.31l14.53,0.03c0.56,0,1.01-0.42,1.05-0.97l0.01-0.13
			c0.23-2.19,0.23-6.18-2.39-8.31l-0.18-0.14l0.05-7.31l-4.22,4.88l-0.29-0.09c-0.04-0.01-4.15-1.23-7.21,0.04L34.59,8.3l-2.64-5.68
			l-1.77,5.71l-0.55-0.55C29.58,7.72,24.87,3.08,17.46,3.08z" fill="#492A19" stroke-width="0"></path>
	</g>
	<g>
		<path d="M38.34,15.99c-0.15,0-0.3-0.08-0.39-0.21c-0.05-0.08-1.24-1.79-3.91-0.73c-0.24,0.09-0.52-0.02-0.61-0.26
			c-0.1-0.24,0.02-0.52,0.26-0.61c3.42-1.36,5.03,1.07,5.05,1.09c0.14,0.22,0.08,0.51-0.14,0.65
			C38.51,15.96,38.42,15.99,38.34,15.99z" fill="#492A19" stroke-width="0"></path>
	</g>
	<g>
		<path d="M42.53,15.95c-0.11,0-0.23-0.04-0.32-0.13c-0.19-0.18-0.2-0.48-0.03-0.67c1.63-1.76,4.52-1.19,4.65-1.17
			c0.25,0.05,0.42,0.3,0.37,0.56c-0.05,0.25-0.3,0.42-0.56,0.37c-0.02-0.01-2.49-0.49-3.77,0.89C42.78,15.9,42.65,15.95,42.53,15.95
			z" fill="#492A19" stroke-width="0"></path>
	</g>
</g>
</svg></g></g><g id="shape_loIvWIkpq6" transform="translate(210.84792879903998,116.059999999995) rotate(0,184.68227166459,211.94) scale(1,1)" filter="" style="cursor: move; opacity: 1;"><g><svg xmlns="http://www.w3.org/2000/svg" version="1.1" xmlns:xlink="http://www.w3.org/1999/xlink" width="554.9200000000001" height="423.88" viewBox="0 0 554.9200000000001 423.88" data-parent="shape_loIvWIkpq6"><rect fill="rgba(0,0,0,0)" width="319" height="70" x="58.98" y="176.94"></rect><g data-width="318.37404" transform="translate(58.98, 0)"><path d="M4.15 2.71L49.48 2.71Q51.15 2.71 52.82 1.84L52.82 1.84Q56.10 0.17 56.10-3.97L56.10-3.97Q56.10-6.74 53.91-8.99L53.91-8.99Q52.64-10.25 51.67-10.66L51.67-10.66L12.79-34.62Q11.69-35.08 11.69-36.17L11.69-36.17Q11.69-38.36 13.94-38.36L13.94-38.36L54.78-38.36Q56.10-38.36 56.10-39.74L56.10-39.74L56.10-40.38Q56.10-41.70 54.78-41.70L54.78-41.70L9.50-41.70Q7.83-41.70 6.16-40.89L6.16-40.89Q2.82-39.22 2.82-35.08L2.82-35.08Q2.82-32.25 5.01-30.07L5.01-30.07Q6.28-28.80 7.26-28.40L7.26-28.40L46.14-4.44Q47.23-3.97 47.23-2.88L47.23-2.88Q47.23-0.63 45.04-0.63L45.04-0.63L4.15-0.63Q2.82-0.63 2.82 0.69L2.82 0.69L2.82 1.38Q2.82 2.71 4.15 2.71L4.15 2.71Z" transform="translate(0 233.94) " fill="rgb(73, 42, 25)" stroke="rgb(73, 42, 25)" stroke-width="0.098" data-glyph-w="58.98" data-glyph-h="57.59765625" data-glyph-ascender="50.685937499999994" data-glyph-descender="-6.9117187499999995"></path><path d="M9.50-41.70L49.48-41.70Q52.18-41.70 54.14-39.74L54.14-39.74Q56.10-37.78 56.10-35.08L56.10-35.08L56.10-3.97Q56.10-1.21 54.14 0.75L54.14 0.75Q52.18 2.71 49.48 2.71L49.48 2.71L9.50 2.71Q6.74 2.71 4.78 0.75L4.78 0.75Q2.82-1.21 2.82-3.97L2.82-3.97L2.82-35.08Q2.82-37.78 4.78-39.74L4.78-39.74Q6.74-41.70 9.50-41.70L9.50-41.70ZM45.04-38.36L13.94-38.36Q13.02-38.36 12.38-37.73L12.38-37.73Q11.69-37.09 11.69-36.17L11.69-36.17L11.69-2.88Q11.69-1.96 12.38-1.27L12.38-1.27Q13.02-0.63 13.94-0.63L13.94-0.63L45.04-0.63Q45.96-0.63 46.60-1.27L46.60-1.27Q47.23-1.96 47.23-2.88L47.23-2.88L47.23-36.17Q47.23-37.09 46.60-37.73L46.60-37.73Q45.96-38.36 45.04-38.36L45.04-38.36Z" transform="translate(58.98 233.94) " fill="rgb(73, 42, 25)" stroke="rgb(73, 42, 25)" stroke-width="0.098" data-glyph-w="58.98" data-glyph-h="57.59765625" data-glyph-ascender="50.685937499999994" data-glyph-descender="-6.9117187499999995"></path><path d="M2.82 1.38L2.82-40.38Q2.82-41.70 4.15-41.70L4.15-41.70L12.90-41.70Q13.42-41.70 13.82-41.36L13.82-41.36L44.98-10.37Q45.62-9.73 46.42-10.08L46.42-10.08Q47.23-10.43 47.23-11.35L47.23-11.35L47.23-40.38Q47.23-41.70 48.55-41.70L48.55-41.70L54.78-41.70Q56.10-41.70 56.10-40.38L56.10-40.38L56.10 1.38Q56.10 2.71 54.78 2.71L54.78 2.71L46.08 2.71Q45.50 2.71 45.16 2.30L45.16 2.30L14.00-28.63Q13.36-29.26 12.56-28.91L12.56-28.91Q11.69-28.57 11.69-27.70L11.69-27.70L11.69 1.38Q11.69 2.71 10.37 2.71L10.37 2.71L4.15 2.71Q2.82 2.71 2.82 1.38L2.82 1.38Z" transform="translate(117.96 233.94) " fill="rgb(73, 42, 25)" stroke="rgb(73, 42, 25)" stroke-width="0.098" data-glyph-w="58.98" data-glyph-h="57.59765625" data-glyph-ascender="50.685937499999994" data-glyph-descender="-6.9117187499999995"></path><path d="M2.82-19.41L2.82 1.44Q2.82 2.76 4.15 2.76L4.15 2.76L10.37 2.76Q11.69 2.76 11.69 1.44L11.69 1.44L11.69-10.60L47.23-10.60L47.23 1.44Q47.23 2.76 48.55 2.76L48.55 2.76L54.78 2.76Q56.10 2.76 56.10 1.44L56.10 1.44L56.10-19.41Q56.10-19.87 55.87-20.22L55.87-20.22L40.66-41.12Q40.26-41.64 39.57-41.64L39.57-41.64L19.35-41.64Q18.72-41.64 18.32-41.12L18.32-41.12L3.11-20.22Q2.82-19.87 2.82-19.41L2.82-19.41ZM47.23-13.88L11.69-13.88L11.69-16.53Q11.69-16.99 11.98-17.34L11.98-17.34L26.84-37.78Q27.24-38.30 27.93-38.30L27.93-38.30L31.05-38.30Q31.68-38.30 32.08-37.78L32.08-37.78L47.00-17.34Q47.23-16.99 47.23-16.53L47.23-16.53L47.23-13.88Z" transform="translate(176.94 233.94) " fill="rgb(73, 42, 25)" stroke="rgb(73, 42, 25)" stroke-width="0.098" data-glyph-w="58.98" data-glyph-h="57.59765625" data-glyph-ascender="50.685937499999994" data-glyph-descender="-6.9117187499999995"></path><path d="" transform="translate(235.92 233.94) " fill="rgb(73, 42, 25)" stroke="rgb(73, 42, 25)" stroke-width="0.098" data-glyph-w="23.47404" data-glyph-h="58.98" data-glyph-ascender="51.9024" data-glyph-descender="-7.0775999999999994"></path><path d="M2.82-40.38L2.82-19.87Q2.82-19.53 3.00-19.24L3.00-19.24L14.46 1.96Q14.80 2.71 15.61 2.71L15.61 2.71L21.14 2.71Q21.94 2.71 22.29 1.96L22.29 1.96L29.49-11.29L36.63 1.96Q37.04 2.71 37.84 2.71L37.84 2.71L43.37 2.71Q44.12 2.71 44.52 1.96L44.52 1.96L55.98-19.24Q56.10-19.53 56.10-19.87L56.10-19.87L56.10-40.38Q56.10-41.70 54.78-41.70L54.78-41.70L48.55-41.70Q47.23-41.70 47.23-40.38L47.23-40.38L47.23-22.12Q47.23-21.77 47.06-21.48L47.06-21.48L40.61-9.39L34.10-21.48Q33.93-21.77 33.93-22.12L33.93-22.12L33.93-40.38Q33.93-41.70 32.60-41.70L32.60-41.70L26.38-41.70Q25.05-41.70 25.05-40.38L25.05-40.38L25.05-22.12Q25.05-21.77 24.88-21.48L24.88-21.48L18.37-9.39L11.87-21.48Q11.69-21.77 11.69-22.12L11.69-22.12L11.69-40.38Q11.69-41.70 10.37-41.70L10.37-41.70L4.15-41.70Q2.82-41.70 2.82-40.38L2.82-40.38Z" transform="translate(259.39403999999996 233.94) " fill="rgb(73, 42, 25)" stroke="rgb(73, 42, 25)" stroke-width="0.098" data-glyph-w="58.98" data-glyph-h="57.59765625" data-glyph-ascender="50.685937499999994" data-glyph-descender="-6.9117187499999995"></path></g></svg></g></g>  <!----><defs><pattern id="wm_tile" x="0" y="0" width="20%" height="27%" patternunits="objectBoundingBox"><g id="wm_lm" transform="translate(-188.000000, -323.000000)" fill="#cccccc"><text font-size="15" transform="translate(270.490979, 373.245789) rotate(-390.000000) translate(-270.490979, -373.245789)"><tspan x="187.490979" opacity=".3" y="378.245789">copyright © copyright © </tspan></text></g></pattern></defs><rect x="0" y="0" width="100%" height="100%" style="fill: url(#wm_tile);"></rect></svg>